<svg width="1440" height="1024" viewBox="0 0 1440 1024" fill="none" xmlns="http://www.w3.org/2000/svg">
<rect width="1440" height="1024" fill="#8300FF"/>
<path opacity="0.4" d="M720 847H827V1024H720V847Z" fill="#E7CEFF"/>
<path opacity="0.4" d="M719.5 847C731.122 847 742.63 849.289 753.367 853.737C764.105 858.184 773.861 864.703 782.079 872.921C790.297 881.139 796.816 890.895 801.263 901.633C805.711 912.37 808 923.878 808 935.5C808 947.122 805.711 958.63 801.263 969.367C796.816 980.105 790.297 989.861 782.079 998.079C773.861 1006.3 764.105 1012.82 753.367 1017.26C742.63 1021.71 731.122 1024 719.5 1024L719.5 935.5V847Z" fill="#8300FF"/>
<path opacity="0.4" d="M720 146C733.657 146 747.181 148.69 759.799 153.917C772.417 159.143 783.882 166.804 793.539 176.461C803.196 186.118 810.857 197.583 816.083 210.201C821.31 222.819 824 236.343 824 250C824 263.657 821.31 277.181 816.083 289.799C810.857 302.417 803.196 313.882 793.539 323.539C783.882 333.196 772.417 340.857 759.799 346.083C747.181 351.31 733.657 354 720 354L720 250V146Z" fill="url(#paint0_linear_4491_11726)"/>
<path d="M720 0C696.756 0 673.74 4.57824 652.265 13.4733C630.79 22.3684 611.278 35.4061 594.842 51.8421C578.406 68.2781 565.368 87.7904 556.473 109.265C547.578 130.74 543 153.756 543 177C543 200.244 547.578 223.26 556.473 244.735C565.368 266.21 578.406 285.722 594.842 302.158C611.278 318.594 630.79 331.632 652.265 340.527C673.74 349.422 696.756 354 720 354L720 177V0Z" fill="#AC88BF"/>
<path d="M366 847C366 870.244 370.578 893.26 379.473 914.735C388.368 936.21 401.406 955.722 417.842 972.158C434.278 988.594 453.79 1001.63 475.265 1010.53C496.74 1019.42 519.756 1024 543 1024C566.244 1024 589.26 1019.42 610.735 1010.53C632.21 1001.63 651.722 988.594 668.158 972.158C684.594 955.722 697.632 936.21 706.527 914.735C715.422 893.26 720 870.244 720 847L543 847H366Z" fill="#B463DE"/>
<path opacity="0.4" d="M719.5 354C746.695 354 773.279 362.064 795.891 377.173C818.503 392.282 836.126 413.756 846.533 438.881C856.94 464.006 859.663 491.653 854.358 518.325C849.053 544.997 835.957 569.497 816.727 588.727C797.497 607.957 772.997 621.053 746.325 626.358C719.653 631.663 692.006 628.94 666.881 618.533C641.756 608.126 620.282 590.503 605.173 567.891C590.064 545.279 582 518.695 582 491.5L719.5 491.5V354Z" fill="url(#paint1_linear_4491_11726)"/>
<path opacity="0.99" d="M365 554H538C604.274 554 658 607.726 658 674V847H485C418.726 847 365 793.274 365 727V554Z" fill="#A78DFC"/>
<path opacity="0.99" d="M189 1024H366V847V847C293.87 847 257.806 847 232.144 864.736C222.21 871.602 213.602 880.21 206.736 890.144C189 915.806 189 951.87 189 1024V1024Z" fill="#4B8078"/>
<path d="M720.5 628C702.443 628 684.563 624.443 667.881 617.533C651.199 610.623 636.041 600.495 623.273 587.727C610.505 574.959 600.377 559.801 593.467 543.119C586.557 526.437 583 508.557 583 490.5L720.5 490.5L720.5 628Z" fill="#62BAAC"/>
<defs>
<linearGradient id="paint0_linear_4491_11726" x1="720" y1="250" x2="824" y2="250" gradientUnits="userSpaceOnUse">
<stop stop-color="#FFE8FF"/>
<stop offset="1" stop-color="white"/>
</linearGradient>
<linearGradient id="paint1_linear_4491_11726" x1="582" y1="491.5" x2="857" y2="491.5" gradientUnits="userSpaceOnUse">
<stop stop-color="#62BAAC"/>
<stop offset="1" stop-color="white"/>
</linearGradient>
</defs>
</svg>
