<svg width="708" height="1024" viewBox="0 0 708 1024" fill="none" xmlns="http://www.w3.org/2000/svg">
<path opacity="0.4" d="M531 847H638V1024H531V847Z" fill="#E7CEFF"/>
<path opacity="0.4" d="M530.5 847C542.122 847 553.63 849.289 564.367 853.737C575.105 858.184 584.861 864.703 593.079 872.921C601.297 881.139 607.816 890.895 612.263 901.633C616.711 912.37 619 923.878 619 935.5C619 947.122 616.711 958.63 612.263 969.367C607.816 980.105 601.297 989.861 593.079 998.079C584.861 1006.3 575.105 1012.82 564.367 1017.26C553.63 1021.71 542.122 1024 530.5 1024L530.5 935.5V847Z" fill="#8300FF"/>
<path opacity="0.4" d="M531 146C544.657 146 558.181 148.69 570.799 153.917C583.417 159.143 594.882 166.804 604.539 176.461C614.196 186.118 621.857 197.583 627.083 210.201C632.31 222.819 635 236.343 635 250C635 263.657 632.31 277.181 627.083 289.799C621.857 302.417 614.196 313.882 604.539 323.539C594.882 333.196 583.417 340.857 570.799 346.083C558.181 351.31 544.657 354 531 354L531 250V146Z" fill="url(#paint0_linear_4491_11779)"/>
<path d="M531 0C507.756 0 484.74 4.57824 463.265 13.4733C441.79 22.3684 422.278 35.4061 405.842 51.8421C389.406 68.2781 376.368 87.7904 367.473 109.265C358.578 130.74 354 153.756 354 177C354 200.244 358.578 223.26 367.473 244.735C376.368 266.21 389.406 285.722 405.842 302.158C422.278 318.594 441.79 331.632 463.265 340.527C484.74 349.422 507.756 354 531 354L531 177V0Z" fill="#AC88BF"/>
<path d="M177 847C177 870.244 181.578 893.26 190.473 914.735C199.368 936.21 212.406 955.722 228.842 972.158C245.278 988.594 264.79 1001.63 286.265 1010.53C307.74 1019.42 330.756 1024 354 1024C377.244 1024 400.26 1019.42 421.735 1010.53C443.21 1001.63 462.722 988.594 479.158 972.158C495.594 955.722 508.632 936.21 517.527 914.735C526.422 893.26 531 870.244 531 847L354 847H177Z" fill="#B463DE"/>
<path opacity="0.4" d="M530.5 354C557.695 354 584.279 362.064 606.891 377.173C629.503 392.282 647.126 413.756 657.533 438.881C667.94 464.006 670.663 491.653 665.358 518.325C660.053 544.997 646.957 569.497 627.727 588.727C608.497 607.957 583.997 621.053 557.325 626.358C530.653 631.663 503.006 628.94 477.881 618.533C452.756 608.126 431.282 590.503 416.173 567.891C401.064 545.279 393 518.695 393 491.5L530.5 491.5V354Z" fill="url(#paint1_linear_4491_11779)"/>
<path opacity="0.99" d="M176 554H349C415.274 554 469 607.726 469 674V847H296C229.726 847 176 793.274 176 727V554Z" fill="#A78DFC"/>
<path opacity="0.99" d="M0 1024H177V847V847C104.87 847 68.8056 847 43.1438 864.736C33.2099 871.602 24.6017 880.21 17.7359 890.144C0 915.806 0 951.87 0 1024V1024Z" fill="#4B8078"/>
<path d="M531.5 628C513.443 628 495.563 624.443 478.881 617.533C462.199 610.623 447.041 600.495 434.273 587.727C421.505 574.959 411.377 559.801 404.467 543.119C397.557 526.437 394 508.557 394 490.5L531.5 490.5L531.5 628Z" fill="#62BAAC"/>
<defs>
<linearGradient id="paint0_linear_4491_11779" x1="531" y1="250" x2="635" y2="250" gradientUnits="userSpaceOnUse">
<stop stop-color="#FFE8FF"/>
<stop offset="1" stop-color="white"/>
</linearGradient>
<linearGradient id="paint1_linear_4491_11779" x1="393" y1="491.5" x2="668" y2="491.5" gradientUnits="userSpaceOnUse">
<stop stop-color="#62BAAC"/>
<stop offset="1" stop-color="white"/>
</linearGradient>
</defs>
</svg>
